<svg width="131" height="62" fill="none" xmlns="http://www.w3.org/2000/svg"><path d="M9.12.28h3.392L21.344 23h-3.776l-2.4-6.176H6.4L4.032 23H.224L9.12.28zm5.344 13.888l-3.648-9.952-3.776 9.952h7.424zm8.186 13.184v-7.52h1.088c.597 0 1.11-.235 1.536-.704.448-.47.821-1.216 1.12-2.24.32-1.024.565-2.368.736-4.032.192-1.685.33-3.744.416-6.176l.16-6.4H42.33v19.552h2.88v7.52h-3.168V23H25.818v4.352H22.65zm5.632-7.52h10.432V3.448h-7.68l-.096 3.712c-.064 2.453-.192 4.533-.384 6.24-.192 1.685-.47 3.05-.832 4.096-.363 1.045-.843 1.824-1.44 2.336zM67.976 23V6.808l-6.688 12.288h-2.111l-6.72-12.288V23h-3.584V.28h3.84l7.52 13.888L67.752.28h3.84V23h-3.617zm8.74 0V.28H80.3V23h-3.584zM104.091.28V23h-3.616V12.984H89.019V23h-3.584V.28h3.584v9.504h11.456V.28h3.616zM2.592 61V38.28h17.952V61h-3.616V41.448H6.176V61H2.592zm29.653-22.72h3.392L44.469 61h-3.776l-2.4-6.176h-8.768L27.157 61h-3.808l8.896-22.72zm5.344 13.888l-3.648-9.952-3.776 9.952h7.424zM65.935 38.28V61h-3.616V50.984H50.863V61h-3.584V38.28h3.584v9.504h11.456V38.28h3.616zm20.709 19.552V61H71.06V38.28h15.296v3.168H74.644v6.464h10.144v2.976H74.644v6.944h12zM105.093 61V41.448h-7.584l-.128 4.224c-.128 3.05-.373 5.579-.736 7.584-.362 1.984-.885 3.552-1.568 4.704-.682 1.13-1.536 1.941-2.56 2.432-1.024.47-2.25.704-3.68.704V57.96c.79 0 1.483-.181 2.08-.544.598-.384 1.099-1.056 1.504-2.016.427-.96.758-2.304.992-4.032.256-1.75.427-3.979.512-6.688l.224-6.4h14.56V61h-3.616zm8.78 0V38.28h3.584v8.384h5.088c1.664 0 3.062.299 4.192.896 1.131.576 1.995 1.397 2.592 2.464.598 1.067.896 2.325.896 3.776 0 1.365-.288 2.603-.864 3.712-.576 1.088-1.418 1.941-2.528 2.56-1.109.619-2.464.928-4.064.928h-8.896zm3.584-2.976h4.8c1.003 0 1.814-.192 2.432-.576.64-.384 1.11-.896 1.408-1.536a5.067 5.067 0 00.448-2.112c0-.725-.138-1.408-.416-2.048-.256-.64-.704-1.152-1.344-1.536-.64-.384-1.493-.576-2.56-.576h-4.768v8.384z" fill="#3F51B5"/></svg>