<svg width="131" height="62" viewBox="0 0 131 62" fill="none" xmlns="http://www.w3.org/2000/svg">
<path d="M9.12 0.279999H12.512L21.344 23H17.568L15.168 16.824H6.4L4.032 23H0.224L9.12 0.279999ZM14.464 14.168L10.816 4.216L7.04 14.168H14.464ZM22.6497 27.352V19.832H23.7378C24.3351 19.832 24.8471 19.5973 25.2738 19.128C25.7218 18.6587 26.0951 17.912 26.3938 16.888C26.7138 15.864 26.9591 14.52 27.1298 12.856C27.3218 11.1707 27.4604 9.112 27.5458 6.68L27.7058 0.279999H42.3298V19.832H45.2098V27.352H42.0418V23H25.8177V27.352H22.6497ZM28.2818 19.832H38.7138V3.448H31.0338L30.9378 7.16C30.8738 9.61333 30.7458 11.6933 30.5538 13.4C30.3618 15.0853 30.0844 16.4507 29.7218 17.496C29.3591 18.5413 28.8791 19.32 28.2818 19.832ZM67.9765 23V6.808L61.2885 19.096H59.1765L52.4565 6.808V23H48.8725V0.279999H52.7125L60.2325 14.168L67.7525 0.279999H71.5925V23H67.9765ZM76.7163 23V0.279999H80.3003V23H76.7163ZM104.091 0.279999V23H100.475V12.984H89.019V23H85.435V0.279999H89.019V9.784H100.475V0.279999H104.091ZM2.592 61V38.28H20.544V61H16.928V41.448H6.176V61H2.592ZM32.245 38.28H35.637L44.469 61H40.693L38.293 54.824H29.525L27.157 61H23.349L32.245 38.28ZM37.589 52.168L33.941 42.216L30.165 52.168H37.589ZM65.9348 38.28V61H62.3188V50.984H50.8628V61H47.2788V38.28H50.8628V47.784H62.3188V38.28H65.9348ZM86.644 57.832V61H71.06V38.28H86.356V41.448H74.644V47.912H84.788V50.888H74.644V57.832H86.644ZM105.093 61V41.448H97.5093L97.3813 45.672C97.2533 48.7227 97.0079 51.2507 96.6453 53.256C96.2826 55.24 95.7599 56.808 95.0773 57.96C94.3946 59.0907 93.5413 59.9013 92.5173 60.392C91.4933 60.8613 90.2666 61.096 88.8372 61.096V57.96C89.6266 57.96 90.3199 57.7787 90.9173 57.416C91.5146 57.032 92.0159 56.36 92.4213 55.4C92.8479 54.44 93.1786 53.096 93.4133 51.368C93.6693 49.6187 93.8399 47.3893 93.9253 44.68L94.1493 38.28H108.709V61H105.093ZM113.873 61V38.28H117.457V46.664H122.545C124.209 46.664 125.607 46.9627 126.737 47.56C127.868 48.136 128.732 48.9573 129.329 50.024C129.927 51.0907 130.225 52.3493 130.225 53.8C130.225 55.1653 129.937 56.4027 129.361 57.512C128.785 58.6 127.943 59.4533 126.833 60.072C125.724 60.6907 124.369 61 122.769 61H113.873ZM117.457 58.024H122.257C123.26 58.024 124.071 57.832 124.689 57.448C125.329 57.064 125.799 56.552 126.097 55.912C126.396 55.2507 126.545 54.5467 126.545 53.8C126.545 53.0747 126.407 52.392 126.129 51.752C125.873 51.112 125.425 50.6 124.785 50.216C124.145 49.832 123.292 49.64 122.225 49.64H117.457V58.024Z" fill="#3F51B5"/>
</svg>
