<svg width="28" height="28" fill="none" xmlns="http://www.w3.org/2000/svg"><path clip-rule="evenodd" d="M11 4.541c-2.881 1.148-4.923 3.9-4.923 7.136v6.303l-2.76 2.678a.983.983 0 00-.317.724v.13a1.99 1.99 0 002 1.979h5.025C10.252 25.465 11.945 27 14 27c2.056 0 3.75-1.535 3.974-3.51H23c1.105 0 2-.885 2-1.979v-.129a.983.983 0 00-.318-.724l-2.759-2.678v-5.087a4.001 4.001 0 10-3.04-7.287A7.982 7.982 0 0017 4.541V3.474c0-1.29-1.004-1.925-1.398-2.12A3.642 3.642 0 0014 1c-.52 0-1.088.1-1.602.354-.394.195-1.398.83-1.398 2.12v1.067zm6.503 2.515A6.024 6.024 0 0014 5.948c-3.29 0-5.923 2.583-5.923 5.729v6.719a.98.98 0 01-.307.713l-2.475 2.402h17.41l-2.182-2.117a1.969 1.969 0 01-.6-1.413v-5.128a4.002 4.002 0 01-2.42-5.797zM14.927 3.97l-.016.05a8.212 8.212 0 00-1.822 0 1.493 1.493 0 01-.016-.05H13v-.495c0-.273.447-.495 1-.495.553 0 1 .222 1 .495v.495h-.073zm-2.875 19.52c.205.876 1 1.53 1.948 1.53s1.743-.654 1.948-1.53h-3.896zM19 9a2 2 0 114 0 2 2 0 01-4 0z" fill="#000" fill-rule="evenodd"/></svg>