<svg width="18" height="19" fill="none" xmlns="http://www.w3.org/2000/svg"><path fill-rule="evenodd" clip-rule="evenodd" d="M12.25 1.667a.75.75 0 00-1.5 0v.916h-3a.75.75 0 000 1.5h3V5a.75.75 0 001.5 0V1.667zM.75 8.333V5a2.417 2.417 0 012.417-2.417h.916v-.916a.75.75 0 111.5 0V5a.75.75 0 11-1.5 0v-.917h-.916A.917.917 0 002.25 5v2.583h13.5V5a.917.917 0 00-.917-.917h-.416a.75.75 0 010-1.5h.416A2.417 2.417 0 0117.25 5v10.833a2.417 2.417 0 01-2.417 2.417H3.167A2.417 2.417 0 01.75 15.833v-7.5zm1.5 7.5v-6.75h13.5v6.75c0 .507-.41.917-.917.917H3.167a.917.917 0 01-.917-.917z" fill="#B7BBD0"/></svg>