<svg width="24" height="18" fill="none" xmlns="http://www.w3.org/2000/svg"><path fill-rule="evenodd" clip-rule="evenodd" d="M3.833 1.583c-.874 0-1.583.71-1.583 1.584v11.666c0 .875.709 1.584 1.583 1.584h16.334c.874 0 1.583-.709 1.583-1.584V3.168c0-.875-.709-1.583-1.583-1.583H3.833zM.75 3.167A3.083 3.083 0 013.833.083h16.334a3.083 3.083 0 013.083 3.084v11.666a3.083 3.083 0 01-3.083 3.084H3.833A3.083 3.083 0 01.75 14.833V3.168zm8.386 2.97a.75.75 0 011.061 0l1.945 1.944 1.944-1.945a.75.75 0 011.06 1.06l-1.944 1.945 1.945 1.945a.75.75 0 11-1.061 1.06l-1.944-1.944-1.945 1.944a.75.75 0 01-1.06-1.06L11.08 9.14 9.136 7.197a.75.75 0 010-1.06zM5 3.583a.75.75 0 100 1.5h1.167a.75.75 0 000-1.5H5z" fill="#B7BBD0"/></svg>