<svg width="20" height="20" fill="none" xmlns="http://www.w3.org/2000/svg"><path fill-rule="evenodd" clip-rule="evenodd" d="M3 .25A2.75 2.75 0 00.25 3v14A2.75 2.75 0 003 19.75h14A2.75 2.75 0 0019.75 17V3A2.75 2.75 0 0017 .25H3zM1.75 3c0-.69.56-1.25 1.25-1.25h14c.69 0 1.25.56 1.25 1.25v14c0 .69-.56 1.25-1.25 1.25H3c-.69 0-1.25-.56-1.25-1.25V3zM5 4.25a.75.75 0 000 1.5h10a.75.75 0 000-1.5H5zM4.25 10A.75.75 0 015 9.25h10a.75.75 0 010 1.5H5a.75.75 0 01-.75-.75zM5 14.25a.75.75 0 000 1.5h6a.75.75 0 000-1.5H5z" fill="#B7BBD0"/></svg>