<svg width="20" height="19" fill="none" xmlns="http://www.w3.org/2000/svg"><path fill-rule="evenodd" clip-rule="evenodd" d="M4.197 7.594l-.088.022a5.917 5.917 0 0111.782 0l-.088-.022a1.25 1.25 0 00-1.553 1.213v4.553c0 .813.764 1.41 1.553 1.212l.105-.026a.917.917 0 01-.908.787h-1.895a2 2 0 00-1.855-1.25h-2.5a2 2 0 100 4h2.5a2 2 0 001.855-1.25H15a2.417 2.417 0 002.417-2.416v-.254a2.417 2.417 0 001.666-2.298v-1.564c0-1.052-.68-1.976-1.668-2.298a7.417 7.417 0 00-14.83 0 2.417 2.417 0 00-1.668 2.298v1.564c0 1.11.754 2.076 1.83 2.345l1.45.362A1.25 1.25 0 005.75 13.36V8.806a1.25 1.25 0 00-1.553-1.213zm.053 1.533l-1.139.285a.917.917 0 00-.694.89v1.563c0 .42.286.788.694.89l1.139.284V9.127zm12.639.285l-1.139-.285v3.912l1.139-.284a.917.917 0 00.694-.89v-1.564a.917.917 0 00-.694-.889zM8.25 16.083a.5.5 0 01.5-.5h2.5a.5.5 0 110 1h-2.5a.5.5 0 01-.5-.5z" fill="#171919"/></svg>