<svg width="28" height="28" fill="none" xmlns="http://www.w3.org/2000/svg"><path d="M12.3 12a.3.3 0 00-.3.3v.4a.3.3 0 00.3.3h7.4a.3.3 0 00.3-.3v-.4a.3.3 0 00-.3-.3h-7.4zm-.3 8.3a.3.3 0 01.3-.3h7.4a.3.3 0 01.3.3v.4a.3.3 0 01-.3.3h-7.4a.3.3 0 01-.3-.3v-.4zm.3-4.3a.3.3 0 00-.3.3v.4a.3.3 0 00.3.3h7.4a.3.3 0 00.3-.3v-.4a.3.3 0 00-.3-.3h-7.4z" fill="#000"/><path clip-rule="evenodd" d="M23.5 5H21V2.375C21 1.615 20.396 1 19.65 1H4.35C3.604 1 3 1.616 3 2.375v19.25C3 22.385 3.604 23 4.35 23H7v2.5A1.5 1.5 0 008.5 27h15a1.5 1.5 0 001.5-1.5v-19A1.5 1.5 0 0023.5 5zM4.8 3.833a1 1 0 011-1h12.4a1 1 0 011 1V5H8.5A1.5 1.5 0 007 6.5v14.667H5.8a1 1 0 01-1-1V3.833zM10 7a1 1 0 00-1 1v16a1 1 0 001 1h12a1 1 0 001-1V8a1 1 0 00-1-1H10z" fill="#000" fill-rule="evenodd"/></svg>