<svg width="15" height="16" fill="none" xmlns="http://www.w3.org/2000/svg"><path fill-rule="evenodd" clip-rule="evenodd" d="M13.333.583a.75.75 0 01.75.75v3.334a.75.75 0 01-1.5 0V1.334a.75.75 0 01.75-.75zM.083 3a.75.75 0 01.75-.75H10a.75.75 0 110 1.5H.833A.75.75 0 01.083 3zM12.5 5.583a.75.75 0 000 1.5h.917v.167H13c-.69 0-1.25.56-1.25 1.25v.667c0 .69.56 1.25 1.25 1.25h1.167a.75.75 0 000-1.5h-.917V8.75h.417c.69 0 1.25-.56 1.25-1.25v-.667c0-.69-.56-1.25-1.25-1.25H12.5zm-.75 5.75a.75.75 0 01.75-.75h1.167c.69 0 1.25.56 1.25 1.25v2.334c0 .69-.56 1.25-1.25 1.25H12.5a.75.75 0 010-1.5h.917v-.167H12.5a.75.75 0 010-1.5h.917v-.166H12.5a.75.75 0 01-.75-.75zM.083 8a.75.75 0 01.75-.75H10a.75.75 0 110 1.5H.833A.75.75 0 01.083 8zm.75 4.25a.75.75 0 000 1.5H10a.75.75 0 100-1.5H.833z" fill="#B7BBD0"/></svg>