<svg width="19" height="10" fill="none" xmlns="http://www.w3.org/2000/svg"><path fill-rule="evenodd" clip-rule="evenodd" d="M11.5 4.915C11.5 2.428 9.238 0 6.464 0H5.036C2.275 0 0 2.18 0 4.915 0 7.27 1.691 9.217 3.922 9.709c.359.079.732.12 1.114.12a.75.75 0 100-1.5c-.273 0-.538-.03-.791-.085-1.586-.35-2.745-1.72-2.745-3.33C1.5 3.05 3.063 1.5 5.036 1.5h1.428C8.401 1.5 10 3.248 10 4.915a.75.75 0 001.5 0zM13.13 0a.75.75 0 000 1.5c.274 0 .538.03.792.086 1.586.35 2.745 1.72 2.745 3.329 0 1.865-1.563 3.414-3.536 3.414h-1.429c-1.936 0-3.535-1.748-3.535-3.414a.75.75 0 00-1.5 0c0 2.486 2.262 4.914 5.035 4.914h1.429c2.76 0 5.036-2.18 5.036-4.914 0-2.356-1.691-4.302-3.922-4.794A5.17 5.17 0 0013.13 0z" fill="#B7BBD0"/></svg>