<svg width="21" height="25" fill="none" xmlns="http://www.w3.org/2000/svg"><path fill-rule="evenodd" clip-rule="evenodd" d="M5.75 6.544a4.25 4.25 0 118.5 0 4.25 4.25 0 01-8.5 0zM10 .794a5.75 5.75 0 00-3.073 10.61c-2.615 1.04-4.851 3.439-5.86 7.08l-.79 2.882a.75.75 0 101.446.396l.79-2.878c1.232-4.446 4.416-6.57 7.487-6.57a.75.75 0 00.185-.023A5.75 5.75 0 0010 .794zm5 13.52a4.25 4.25 0 100 8.5 4.25 4.25 0 000-8.5zm-5.75 4.25a5.75 5.75 0 1111.5 0 5.75 5.75 0 01-11.5 0zm8.834-.924a.75.75 0 00-1.107-1.012l-2.6 2.843-.907-1.208a.75.75 0 10-1.2.901l1.45 1.93a.75.75 0 001.153.056l3.21-3.51z" fill="#000"/></svg>