<svg width="32" height="35" fill="none" xmlns="http://www.w3.org/2000/svg"><g clip-path="url(#clip0_64_1506)"><path d="M28.09 3.804c-.827-.761-4.18-3.208-11.648-3.24 0 0-8.81-.53-13.103 3.425C.952 6.386.115 9.896.02 14.249c-.096 4.355-.203 12.515 7.632 14.733h.007l-.007 3.379s-.052 1.369.844 1.644c1.083.34 1.723-.701 2.76-1.821.567-.616 1.349-1.519 1.943-2.207 3.404.316 6.838.053 10.155-.778l-.209.044c1.083-.353 7.207-1.14 8.198-9.298 1.035-8.423-.493-13.737-3.252-16.14zm.908 15.526c-.845 6.81-5.806 7.243-6.719 7.536-1.992.508-4.28.799-6.635.799a28.16 28.16 0 01-2.01-.071l.088.005s-3.392 4.105-4.448 5.173c-.345.346-.724.318-.717-.373 0-.451.026-5.613.026-5.613-6.632-1.846-6.248-8.797-6.17-12.427.077-3.63.756-6.614 2.778-8.617 3.634-3.307 11.115-2.816 11.115-2.816 6.32.026 9.347 1.938 10.05 2.58 2.33 2.004 3.517 6.798 2.642 13.823v.001zm-9.06-5.291v.02a.426.426 0 01-.412.412.422.422 0 01-.432-.392v-.001a2.035 2.035 0 00-.556-1.603 2.017 2.017 0 00-1.575-.615h.005a.422.422 0 01-.39-.435.425.425 0 01.413-.413h.023-.001l.096-.002a2.825 2.825 0 012.071.903 2.847 2.847 0 01.757 2.136v-.009l.002-.001zm1.324.742c.065-2.777-1.663-4.95-4.943-5.194a.422.422 0 01-.41-.454.427.427 0 01.301-.377.421.421 0 01.168-.015h-.001.024a5.694 5.694 0 014.157 1.8 5.739 5.739 0 011.546 4.273l.001-.015a.425.425 0 01-.428.395.422.422 0 01-.416-.407v-.01.004zm3.06.878v.003a.426.426 0 01-.42.402.422.422 0 01-.424-.398c-.033-5.338-3.58-8.245-7.877-8.276a.42.42 0 01-.422-.423.424.424 0 01.422-.424c4.812.034 8.68 3.368 8.719 9.115l.003.001zm-.73 6.423v.012c-.704 1.245-2.021 2.62-3.378 2.18l-.012-.019a25.072 25.072 0 01-6.722-3.742l.057.042a17.223 17.223 0 01-2.74-2.742l-.026-.035a21.075 21.075 0 01-1.95-2.942l-.056-.11a19.111 19.111 0 01-1.66-3.51l-.041-.137c-.437-1.362.925-2.685 2.171-3.392h.013a1.18 1.18 0 011.558.253l.002.003s.808.968 1.154 1.447c.326.446.764 1.16.991 1.558a1.367 1.367 0 01-.24 1.74l-.002.002-.782.628a1.147 1.147 0 00-.345.92v-.004a8.247 8.247 0 002.035 3.435 8.202 8.202 0 003.405 2.07l.058.016a1.144 1.144 0 00.913-.345l.626-.785a1.358 1.358 0 011.74-.24l-.005-.002a16.999 16.999 0 013.001 2.164l-.015-.014a1.165 1.165 0 01.245 1.55l.003-.004.002.003z" fill="#FBFCFF"/></g><defs><clipPath id="clip0_64_1506"><path fill="#fff" transform="translate(0 .54)" d="M0 0h32v33.524H0z"/></clipPath></defs></svg>