<svg width="19" height="20" viewBox="0 0 19 20" fill="none" xmlns="http://www.w3.org/2000/svg">
<path fill-rule="evenodd" clip-rule="evenodd" d="M13.1484 2.41675C12.4628 2.41675 11.8053 2.68911 11.3204 3.17394L3.66213 10.8322C3.66213 10.8322 3.66213 10.8322 3.66213 10.8322C2.86456 11.6298 2.4165 12.7115 2.4165 13.8394C2.4165 14.9673 2.86457 16.0491 3.66211 16.8466C4.45965 17.6442 5.54138 18.0922 6.66929 18.0922C7.79719 18.0922 8.8789 17.6442 9.6764 16.8466L17.3348 9.18825C17.6277 8.89536 18.1025 8.89536 18.3954 9.18825C18.6883 9.48114 18.6883 9.95602 18.3954 10.2489L10.7371 17.9072C10.7371 17.9072 10.7371 17.9072 10.7371 17.9072C9.65828 18.9861 8.19501 19.5922 6.66929 19.5922C5.14356 19.5922 3.68032 18.9862 2.60147 17.9073C1.52259 16.8284 0.916504 15.3652 0.916504 13.8394C0.916504 12.3137 1.5226 10.8505 2.60145 9.7716L10.2598 2.11327C11.0259 1.34717 12.065 0.916748 13.1484 0.916748C14.2319 0.916748 15.271 1.34714 16.0371 2.11329C16.8032 2.8794 17.2337 3.91847 17.2337 5.00193C17.2337 6.08541 16.8032 7.1245 16.0371 7.89061L8.37047 15.5489C7.91705 16.0023 7.3021 16.257 6.66095 16.257C6.01979 16.257 5.40486 16.0023 4.95144 15.5489C4.4981 15.0955 4.24335 14.4807 4.24335 13.8394C4.24335 13.1982 4.49808 12.5833 4.95144 12.1299L12.0267 5.06296C12.3198 4.77024 12.7947 4.77052 13.0874 5.06358C13.3801 5.35665 13.3798 5.83152 13.0868 6.12424L6.01213 13.1906C5.84023 13.3626 5.74335 13.5962 5.74335 13.8394C5.74335 14.0828 5.84001 14.3161 6.01213 14.4883C6.18419 14.6603 6.41756 14.757 6.66095 14.757C6.90434 14.757 7.13772 14.6603 7.30978 14.4883L14.9764 6.82992C14.9765 6.82983 14.9763 6.83001 14.9764 6.82992C15.4611 6.34512 15.7337 5.68742 15.7337 5.00193C15.7337 4.31632 15.4613 3.65877 14.9764 3.17394C14.4917 2.68915 13.8341 2.41675 13.1484 2.41675Z" fill="#B7BBD0"/>
</svg>
