<svg width="18" height="19" viewBox="0 0 18 19" fill="none" xmlns="http://www.w3.org/2000/svg">
<path fill-rule="evenodd" clip-rule="evenodd" d="M12.25 1.66669C12.25 1.25247 11.9142 0.916687 11.5 0.916687C11.0858 0.916687 10.75 1.25247 10.75 1.66669V2.58335H7.75C7.33579 2.58335 7 2.91914 7 3.33335C7 3.74757 7.33579 4.08335 7.75 4.08335H10.75V5.00002C10.75 5.41423 11.0858 5.75002 11.5 5.75002C11.9142 5.75002 12.25 5.41423 12.25 5.00002V1.66669ZM0.75 8.33331V4.99998C0.75 3.66529 1.83198 2.58331 3.16667 2.58331H4.08333V1.66669C4.08333 1.25247 4.41912 0.916687 4.83333 0.916687C5.24755 0.916687 5.58333 1.25247 5.58333 1.66669V3.3321L5.58333 3.33331L5.58333 3.33452V5.00002C5.58333 5.41423 5.24755 5.75002 4.83333 5.75002C4.41912 5.75002 4.08333 5.41423 4.08333 5.00002V4.08331H3.16667C2.66041 4.08331 2.25 4.49372 2.25 4.99998V7.58335H15.75V4.99998C15.75 4.49371 15.3396 4.08331 14.8333 4.08331H14.4167C14.0025 4.08331 13.6667 3.74753 13.6667 3.33331C13.6667 2.9191 14.0025 2.58331 14.4167 2.58331H14.8333C16.1681 2.58331 17.25 3.6653 17.25 4.99998V8.33331C17.25 8.33332 17.25 8.33333 17.25 8.33333C17.25 8.33334 17.25 8.33335 17.25 8.33335V15.8334C17.25 17.1681 16.168 18.25 14.8333 18.25H3.16667C1.83199 18.25 0.75 17.1681 0.75 15.8334V8.33335V8.33331ZM2.25 15.8334V9.08335H15.75V15.8334C15.75 16.3396 15.3396 16.75 14.8333 16.75H3.16667C2.6604 16.75 2.25 16.3396 2.25 15.8334Z" fill="#B7BBD0"/>
</svg>
