<svg width="24" height="18" viewBox="0 0 24 18" fill="none" xmlns="http://www.w3.org/2000/svg">
<path fill-rule="evenodd" clip-rule="evenodd" d="M3.83333 1.5835C2.95888 1.5835 2.25 2.29238 2.25 3.16683V14.8335C2.25 15.708 2.95887 16.4168 3.83333 16.4168H20.1667C21.0412 16.4168 21.75 15.708 21.75 14.8335V3.16683C21.75 2.29237 21.0411 1.5835 20.1667 1.5835H3.83333ZM0.75 3.16683C0.75 1.46395 2.13045 0.0834961 3.83333 0.0834961H20.1667C21.8696 0.0834961 23.25 1.46396 23.25 3.16683V14.8335C23.25 16.5364 21.8696 17.9168 20.1667 17.9168H3.83333C2.13046 17.9168 0.75 16.5364 0.75 14.8335V3.16683ZM9.1363 6.13617C9.42919 5.84328 9.90406 5.84328 10.197 6.13617L12.1415 8.08069L14.086 6.13617C14.3789 5.84328 14.8538 5.84328 15.1467 6.13617C15.4396 6.42907 15.4396 6.90394 15.1467 7.19683L13.2021 9.14135L15.1467 11.0859C15.4396 11.3788 15.4396 11.8536 15.1467 12.1465C14.8538 12.4394 14.3789 12.4394 14.086 12.1465L12.1415 10.202L10.197 12.1465C9.90406 12.4394 9.42919 12.4394 9.1363 12.1465C8.8434 11.8536 8.8434 11.3788 9.1363 11.0859L11.0808 9.14135L9.1363 7.19683C8.8434 6.90394 8.8434 6.42907 9.1363 6.13617ZM5 3.5835C4.58579 3.5835 4.25 3.91928 4.25 4.3335C4.25 4.74771 4.58579 5.0835 5 5.0835H6.16667C6.58088 5.0835 6.91667 4.74771 6.91667 4.3335C6.91667 3.91928 6.58088 3.5835 6.16667 3.5835H5Z" fill="#B7BBD0"/>
</svg>
