<svg width="20" height="20" viewBox="0 0 20 20" fill="none" xmlns="http://www.w3.org/2000/svg">
<path fill-rule="evenodd" clip-rule="evenodd" d="M3 0.25C1.48122 0.25 0.25 1.48122 0.25 3V17C0.25 18.5188 1.48122 19.75 3 19.75H17C18.5188 19.75 19.75 18.5188 19.75 17V3C19.75 1.48122 18.5188 0.25 17 0.25H3ZM1.75 3C1.75 2.30964 2.30964 1.75 3 1.75H17C17.6904 1.75 18.25 2.30964 18.25 3V17C18.25 17.6904 17.6904 18.25 17 18.25H3C2.30964 18.25 1.75 17.6904 1.75 17V3ZM5 4.25C4.58579 4.25 4.25 4.58579 4.25 5C4.25 5.41421 4.58579 5.75 5 5.75H15C15.4142 5.75 15.75 5.41421 15.75 5C15.75 4.58579 15.4142 4.25 15 4.25H5ZM4.25 10C4.25 9.58579 4.58579 9.25 5 9.25H15C15.4142 9.25 15.75 9.58579 15.75 10C15.75 10.4142 15.4142 10.75 15 10.75H5C4.58579 10.75 4.25 10.4142 4.25 10ZM5 14.25C4.58579 14.25 4.25 14.5858 4.25 15C4.25 15.4142 4.58579 15.75 5 15.75H11C11.4142 15.75 11.75 15.4142 11.75 15C11.75 14.5858 11.4142 14.25 11 14.25H5Z" fill="#B7BBD0"/>
</svg>
