<svg width="18" height="18" viewBox="0 0 18 18" fill="none" xmlns="http://www.w3.org/2000/svg">
<path fill-rule="evenodd" clip-rule="evenodd" d="M2.25 15.75V2.25H15.75V15.75H2.25ZM2 0.75C1.30964 0.75 0.75 1.30964 0.75 2V16C0.75 16.6904 1.30967 17.25 2 17.25H16C16.6904 17.25 17.25 16.6904 17.25 16V2C17.25 1.30967 16.6904 0.75 16 0.75H2ZM13.0833 5.66675C13.0833 5.25253 12.7475 4.91675 12.3333 4.91675C11.9191 4.91675 11.5833 5.25253 11.5833 5.66675V12.3334C11.5833 12.7476 11.9191 13.0834 12.3333 13.0834C12.7475 13.0834 13.0833 12.7476 13.0833 12.3334V5.66675ZM9.75 8.16675C9.75 7.75253 9.41421 7.41675 9 7.41675C8.58579 7.41675 8.25 7.75253 8.25 8.16675V12.3334C8.25 12.7476 8.58579 13.0834 9 13.0834C9.41421 13.0834 9.75 12.7476 9.75 12.3334V8.16675ZM5.66667 9.08325C6.08089 9.08325 6.41667 9.41904 6.41667 9.83325V12.3333C6.41667 12.7475 6.08089 13.0833 5.66667 13.0833C5.25246 13.0833 4.91667 12.7475 4.91667 12.3333V9.83325C4.91667 9.41904 5.25246 9.08325 5.66667 9.08325Z" fill="#171919"/>
</svg>
