<svg width="20" height="19" viewBox="0 0 20 19" fill="none" xmlns="http://www.w3.org/2000/svg">
<path fill-rule="evenodd" clip-rule="evenodd" d="M4.19683 7.59435L4.10858 7.61641C4.38614 4.6067 6.91785 2.25 10 2.25C13.0822 2.25 15.6138 4.6067 15.8914 7.6164L15.8032 7.59435C15.0142 7.39707 14.25 7.99385 14.25 8.80702V13.3595C14.25 14.1727 15.0142 14.7695 15.8032 14.5722L15.9076 14.5461C15.8447 14.9911 15.4624 15.3333 15 15.3333H13.1046C12.808 14.6003 12.0894 14.0833 11.25 14.0833H8.75C7.64542 14.0833 6.75 14.9787 6.75 16.0833C6.75 17.1878 7.64542 18.0833 8.75 18.0833H11.25C12.0893 18.0833 12.8079 17.5662 13.1046 16.8333H15C16.3347 16.8333 17.4167 15.7514 17.4167 14.4167V14.1627C18.4044 13.8407 19.0833 12.9171 19.0833 11.8653V10.3013C19.0833 9.24885 18.4036 8.32471 17.4149 8.00329C17.328 3.98262 14.0415 0.75 10 0.75C5.95848 0.75 2.67198 3.98263 2.5851 8.00331C1.59635 8.32473 0.916668 9.24887 0.916668 10.3013V11.8653C0.916668 12.9743 1.6714 13.9408 2.7472 14.2098L4.19683 14.5722C4.98582 14.7695 5.75 14.1727 5.75 13.3595V8.80703C5.75 7.99382 4.98582 7.39707 4.19683 7.59435ZM4.25 9.12722L3.11102 9.41197C2.70293 9.51401 2.41667 9.88062 2.41667 10.3013V11.8653C2.41667 12.2859 2.70292 12.6526 3.11102 12.7546L4.25 13.0393V9.12722ZM16.889 9.41196L15.75 9.12721V13.0393L16.889 12.7546C17.2971 12.6525 17.5833 12.2859 17.5833 11.8653V10.3013C17.5833 9.88061 17.2971 9.514 16.889 9.41196ZM8.25 16.0833C8.25 15.8071 8.47387 15.5833 8.75 15.5833H11.25C11.5261 15.5833 11.75 15.8071 11.75 16.0833C11.75 16.3594 11.5261 16.5833 11.25 16.5833H8.75C8.47387 16.5833 8.25 16.3594 8.25 16.0833Z" fill="#171919"/>
</svg>
