<svg width="20" height="19" viewBox="0 0 20 19" fill="none" xmlns="http://www.w3.org/2000/svg">
<path fill-rule="evenodd" clip-rule="evenodd" d="M10 0.416748C4.98341 0.416748 0.916664 4.48349 0.916664 9.50008C0.916664 14.5166 4.98341 18.5834 10 18.5834C15.0165 18.5834 19.0833 14.5166 19.0833 9.50008C19.0833 4.48349 15.0165 0.416748 10 0.416748ZM2.41666 9.50008C2.41666 5.31192 5.81184 1.91675 10 1.91675C14.1881 1.91675 17.5833 5.31192 17.5833 9.50008C17.5833 13.6882 14.1881 17.0834 10 17.0834C5.81184 17.0834 2.41666 13.6882 2.41666 9.50008ZM10.5101 5.1916C10.818 5.46873 10.8429 5.94295 10.5658 6.2508L10.5574 6.26006C10.2803 6.56792 9.80607 6.59283 9.49822 6.3157C9.19036 6.03858 9.16545 5.56436 9.44258 5.2565L9.45092 5.24724C9.72804 4.93939 10.2023 4.91448 10.5101 5.1916ZM10 8.33325C10.4142 8.33325 10.75 8.66904 10.75 9.08325V13.2499C10.75 13.6641 10.4142 13.9999 10 13.9999C9.58579 13.9999 9.25 13.6641 9.25 13.2499V9.08325C9.25 8.66904 9.58579 8.33325 10 8.33325Z" fill="#171919"/>
</svg>
