<svg width="21" height="20" viewBox="0 0 21 20" fill="none" xmlns="http://www.w3.org/2000/svg">
<path fill-rule="evenodd" clip-rule="evenodd" d="M3.5 1.77002C2.80964 1.77002 2.25 2.32966 2.25 3.02002V17.8819L4.31386 15.3021C4.83572 14.6498 5.62582 14.27 6.46125 14.27H17.5C18.1904 14.27 18.75 13.7104 18.75 13.02V3.02002C18.75 2.32966 18.1904 1.77002 17.5 1.77002H3.5ZM1.98287 18.2158C1.98284 18.2158 1.9829 18.2158 1.98287 18.2158ZM0.75 3.02002C0.75 1.50124 1.98122 0.27002 3.5 0.27002H17.5C19.0188 0.27002 20.25 1.50124 20.25 3.02002V13.02C20.25 14.5388 19.0188 15.77 17.5 15.77H6.46125C6.08154 15.77 5.7224 15.9426 5.48516 16.2391C5.48515 16.2392 5.48516 16.2391 5.48516 16.2391L3.15418 19.1528C2.35702 20.1493 0.75 19.5857 0.75 18.3095V3.02002Z" fill="#263238"/>
</svg>
