<svg width="15" height="16" viewBox="0 0 15 16" fill="none" xmlns="http://www.w3.org/2000/svg">
<path fill-rule="evenodd" clip-rule="evenodd" d="M13.1368 7.99997L2.79171 13.8191L4.89002 8.42329C4.89008 8.42313 4.89015 8.42296 4.89021 8.4228C4.99604 8.15087 4.99604 7.84906 4.89021 7.57714C4.89015 7.57697 4.89008 7.57681 4.89002 7.57664L2.79171 2.18083L13.1368 7.99997ZM1.98059 14.2753C1.98042 14.2754 1.98024 14.2755 1.98006 14.2756L1.98009 14.2756L1.98059 14.2753ZM14.3888 6.98316C15.1816 7.42924 15.1816 8.57069 14.3888 9.01677L14.3887 9.01682L2.71551 15.583C2.7155 15.583 2.71549 15.583 2.71548 15.583C1.76071 16.1201 0.659157 15.1641 1.0562 14.1433C1.05621 14.1433 1.05622 14.1432 1.05623 14.1432L3.44521 7.99997L1.05623 1.8567C0.659043 0.835663 1.76081 -0.120007 2.71545 0.416919L2.71548 0.416936L14.3887 6.98312L14.3888 6.98316ZM3.4922 7.87914C3.49226 7.87897 3.49233 7.87881 3.49239 7.87864ZM3.49239 8.12129C3.49233 8.12113 3.49226 8.12096 3.4922 8.12079Z" fill="#B7BBD0"/>
</svg>
