<svg width="15" height="16" viewBox="0 0 15 16" fill="none" xmlns="http://www.w3.org/2000/svg">
<path fill-rule="evenodd" clip-rule="evenodd" d="M13.3334 0.583496C13.7476 0.583496 14.0834 0.919283 14.0834 1.3335V4.66683C14.0834 5.08104 13.7476 5.41683 13.3334 5.41683C12.9192 5.41683 12.5834 5.08104 12.5834 4.66683V1.3335C12.5834 0.919283 12.9192 0.583496 13.3334 0.583496ZM0.083374 3C0.083374 2.58579 0.41916 2.25 0.833374 2.25H10C10.4143 2.25 10.75 2.58579 10.75 3C10.75 3.41421 10.4143 3.75 10 3.75H0.833374C0.41916 3.75 0.083374 3.41421 0.083374 3ZM12.5 5.5835C12.0858 5.5835 11.75 5.91928 11.75 6.3335C11.75 6.74771 12.0858 7.0835 12.5 7.0835H13.4167V7.25016H13C12.3096 7.25016 11.75 7.80978 11.75 8.50016V9.16683C11.75 9.85721 12.3096 10.4168 13 10.4168H14.1667C14.5809 10.4168 14.9167 10.081 14.9167 9.66683C14.9167 9.25261 14.5809 8.91683 14.1667 8.91683H13.25V8.75016H13.6667C14.357 8.75016 14.9167 8.19054 14.9167 7.50016V6.8335C14.9167 6.14312 14.357 5.5835 13.6667 5.5835H12.5ZM11.75 11.3335C11.75 10.9193 12.0858 10.5835 12.5 10.5835H13.6667C14.357 10.5835 14.9167 11.1431 14.9167 11.8335V13V14.1668C14.9167 14.8572 14.357 15.4168 13.6667 15.4168H12.5C12.0858 15.4168 11.75 15.081 11.75 14.6668C11.75 14.2526 12.0858 13.9168 12.5 13.9168H13.4167V13.75H12.5C12.0858 13.75 11.75 13.4142 11.75 13C11.75 12.5858 12.0858 12.25 12.5 12.25H13.4167V12.0835H12.5C12.0858 12.0835 11.75 11.7477 11.75 11.3335ZM0.083374 8C0.083374 7.58579 0.41916 7.25 0.833374 7.25H10C10.4143 7.25 10.75 7.58579 10.75 8C10.75 8.41421 10.4143 8.75 10 8.75H0.833374C0.41916 8.75 0.083374 8.41421 0.083374 8ZM0.833374 12.25C0.41916 12.25 0.083374 12.5858 0.083374 13C0.083374 13.4142 0.41916 13.75 0.833374 13.75H10C10.4143 13.75 10.75 13.4142 10.75 13C10.75 12.5858 10.4143 12.25 10 12.25H0.833374Z" fill="#B7BBD0"/>
</svg>
