<svg width="19" height="10" viewBox="0 0 19 10" fill="none" xmlns="http://www.w3.org/2000/svg">
<path fill-rule="evenodd" clip-rule="evenodd" d="M11.5 4.91467C11.5 2.42817 9.2375 0 6.46428 0L5.03572 8.34465e-06C2.27497 8.34465e-06 0 2.18027 0 4.91467C0 7.27017 1.69101 9.21668 3.92184 9.70857C4.28104 9.78782 4.65393 9.82933 5.03572 9.82933C5.44993 9.82933 5.78572 9.49355 5.78572 9.07933C5.78572 8.66512 5.44993 8.32933 5.03572 8.32933C4.76287 8.32933 4.4982 8.29967 4.24483 8.24376C2.65854 7.89399 1.5 6.52316 1.5 4.91467C1.5 3.04892 3.06259 1.50001 5.03572 1.50001L6.46428 1.5C8.40083 1.5 10 3.24833 10 4.91467C10 5.32888 10.3358 5.66467 10.75 5.66467C11.1642 5.66467 11.5 5.32888 11.5 4.91467ZM13.1309 0C12.7167 0 12.3809 0.335786 12.3809 0.75C12.3809 1.16421 12.7167 1.5 13.1309 1.5C13.4036 1.5 13.6682 1.52969 13.9218 1.58561C15.5082 1.93539 16.6667 3.30618 16.6667 4.91467C16.6667 6.78043 15.1041 8.32934 13.1309 8.32934H11.7024C9.76582 8.32934 8.16666 6.581 8.16666 4.91467C8.16666 4.50046 7.83087 4.16467 7.41666 4.16467C7.00244 4.16467 6.66666 4.50046 6.66666 4.91467C6.66666 7.40118 8.92916 9.82934 11.7024 9.82934H13.1309C15.8917 9.82934 18.1667 7.64908 18.1667 4.91467C18.1667 2.55917 16.4757 0.612691 14.2448 0.120791C13.8857 0.0416214 13.5128 0 13.1309 0Z" fill="#B7BBD0"/>
</svg>
