<svg width="16" height="20" viewBox="0 0 16 20" fill="none" xmlns="http://www.w3.org/2000/svg">
<path fill-rule="evenodd" clip-rule="evenodd" d="M4.75 1.66669C4.75 1.25247 5.08579 0.916687 5.5 0.916687H10.5C10.9142 0.916687 11.25 1.25247 11.25 1.66669C11.25 2.0809 10.9142 2.41669 10.5 2.41669H5.5C5.08579 2.41669 4.75 2.0809 4.75 1.66669ZM8 7.58331C8.41421 7.58331 8.75 7.9191 8.75 8.33331V11.6666C8.75 12.0809 8.41421 12.4166 8 12.4166C7.58579 12.4166 7.25 12.0809 7.25 11.6666V8.33331C7.25 7.9191 7.58579 7.58331 8 7.58331ZM7.99998 4.25C3.90387 4.25 0.583313 7.57055 0.583313 11.6667C0.583313 15.7628 3.90387 19.0833 7.99998 19.0833C12.0961 19.0833 15.4166 15.7628 15.4166 11.6667C15.4166 7.57055 12.0961 4.25 7.99998 4.25ZM2.08331 11.6667C2.08331 8.39898 4.73229 5.75 7.99998 5.75C11.2677 5.75 13.9166 8.39898 13.9166 11.6667C13.9166 14.9344 11.2677 17.5833 7.99998 17.5833C4.73229 17.5833 2.08331 14.9344 2.08331 11.6667Z" fill="#B7BBD0"/>
</svg>
