<svg width="21" height="25" viewBox="0 0 21 25" fill="none" xmlns="http://www.w3.org/2000/svg">
<path fill-rule="evenodd" clip-rule="evenodd" d="M5.75 6.54395C5.75 4.19674 7.65279 2.29395 10 2.29395C12.3472 2.29395 14.25 4.19674 14.25 6.54395C14.25 8.89116 12.3472 10.7939 10 10.7939C7.65279 10.7939 5.75 8.89116 5.75 6.54395ZM10 0.793945C6.82436 0.793945 4.25 3.36831 4.25 6.54395C4.25 8.58951 5.31816 10.3856 6.92713 11.4049C4.3117 12.4448 2.07559 14.8428 1.06721 18.4838L0.276723 21.3656C0.16715 21.765 0.402148 22.1777 0.801605 22.2872C1.20106 22.3968 1.61371 22.1618 1.72329 21.7624L2.5128 18.8841C3.74462 14.4377 6.92895 12.314 10 12.314C10.0638 12.314 10.1257 12.306 10.1848 12.291C13.2749 12.1935 15.75 9.65776 15.75 6.54395C15.75 3.36831 13.1756 0.793945 10 0.793945ZM15 14.314C12.6528 14.314 10.75 16.2168 10.75 18.564C10.75 20.9112 12.6528 22.814 15 22.814C17.3472 22.814 19.25 20.9112 19.25 18.564C19.25 16.2168 17.3472 14.314 15 14.314ZM9.25 18.564C9.25 15.3883 11.8244 12.814 15 12.814C18.1756 12.814 20.75 15.3883 20.75 18.564C20.75 21.7396 18.1756 24.314 15 24.314C11.8244 24.314 9.25 21.7396 9.25 18.564ZM18.0835 17.6399C18.363 17.3343 18.3418 16.8599 18.0362 16.5803C17.7305 16.3008 17.2561 16.322 16.9766 16.6276L14.3766 19.4705L13.4696 18.2633C13.2208 17.9321 12.7507 17.8654 12.4195 18.1142C12.0883 18.363 12.0216 18.8331 12.2704 19.1643L13.7204 21.0943C13.8544 21.2727 14.061 21.3822 14.2839 21.3929C14.5067 21.4037 14.7229 21.3146 14.8735 21.1499L18.0835 17.6399Z" fill="black"/>
</svg>
