<svg width="32" height="35" viewBox="0 0 32 35" fill="none" xmlns="http://www.w3.org/2000/svg">
<g clip-path="url(#clip0_64_1506)">
<path d="M28.0904 3.80429C27.2626 3.04302 23.9096 0.59578 16.4424 0.563653C16.4424 0.563653 7.6313 0.0342565 3.33913 3.98867C0.951648 6.38562 0.115474 9.89584 0.0194738 14.2497C-0.0765262 18.6037 -0.183657 26.7639 7.65078 28.9821H7.65773L7.65078 32.361C7.65078 32.361 7.5993 33.7299 8.4953 34.005C9.57773 34.3459 10.2177 33.3038 11.2543 32.1836C11.8219 31.5676 12.6038 30.6652 13.1979 29.9766C16.6024 30.2932 20.0358 30.0301 23.353 29.1986L23.1443 29.2433C24.2268 28.8899 30.3513 28.1035 31.3419 19.9446C32.377 11.5217 30.8494 6.20822 28.0904 3.80429ZM28.9976 19.33C28.153 26.1395 23.1916 26.5725 22.279 26.8659C20.2866 27.3743 17.9993 27.6649 15.6438 27.6649C14.9676 27.6649 14.297 27.6411 13.6334 27.5936L13.7224 27.5992C13.7224 27.5992 10.3304 31.7045 9.27443 32.7717C8.92939 33.1181 8.54956 33.0901 8.55652 32.3987C8.55652 31.9475 8.58295 26.7863 8.58295 26.7863C1.9506 24.9397 2.3346 17.989 2.41252 14.3587C2.49043 10.7283 3.16939 7.74473 5.19095 5.74168C8.82504 2.4354 16.3061 2.92568 16.3061 2.92568C22.6268 2.95222 25.6529 4.86448 26.3569 5.50562C28.6859 7.51007 29.8727 12.304 28.9976 19.3286V19.33ZM19.9388 14.0388V14.0584C19.9358 14.1672 19.8914 14.2707 19.8147 14.3475C19.738 14.4244 19.6348 14.4687 19.5264 14.4714C19.4181 14.4741 19.3128 14.4349 19.2324 14.362C19.152 14.289 19.1025 14.1878 19.0943 14.0793V14.0779C19.1226 13.7863 19.0875 13.492 18.9916 13.2152C18.8956 12.9385 18.7409 12.686 18.5383 12.4751C18.3356 12.2642 18.0898 12.1 17.8178 11.9938C17.5458 11.8875 17.2541 11.8418 16.9628 11.8598H16.9683C16.8602 11.8514 16.7594 11.8016 16.6868 11.7207C16.6142 11.6398 16.5753 11.5341 16.5782 11.4252C16.5811 11.3164 16.6254 11.2128 16.7022 11.1359C16.7789 11.059 16.8822 11.0146 16.9906 11.0119H17.0143H17.0129L17.1089 11.0105C17.4973 11.0104 17.8816 11.0904 18.2379 11.2456C18.5943 11.4009 18.915 11.628 19.1803 11.9129C19.4455 12.1978 19.6496 12.5344 19.7798 12.9018C19.9101 13.2692 19.9637 13.6595 19.9374 14.0486V14.0402L19.9388 14.0388ZM21.2619 14.7805C21.3273 12.0037 19.5993 9.83019 16.3186 9.58714C16.2617 9.58536 16.2057 9.57205 16.154 9.54801C16.1023 9.52398 16.056 9.48971 16.0179 9.44727C15.9797 9.40483 15.9505 9.35508 15.9319 9.30102C15.9134 9.24696 15.9059 9.1897 15.9099 9.13266C15.914 9.07563 15.9294 9.02 15.9554 8.96911C15.9814 8.91822 16.0173 8.87312 16.061 8.83651C16.1048 8.7999 16.1555 8.77255 16.21 8.75608C16.2645 8.73961 16.3218 8.73437 16.3784 8.74067H16.377H16.4007C17.1793 8.74064 17.9496 8.9004 18.6645 9.21012C19.3793 9.51985 20.0236 9.97301 20.5576 10.5418C21.0917 11.1105 21.5043 11.7829 21.7702 12.5176C22.0361 13.2523 22.1495 14.0338 22.1036 14.8141L22.105 14.7987C22.0976 14.907 22.0491 15.0082 21.9696 15.0818C21.8901 15.1553 21.7856 15.1954 21.6775 15.194C21.5694 15.1926 21.466 15.1497 21.3885 15.0741C21.3109 14.9985 21.2651 14.8959 21.2605 14.7875V14.7764L21.2619 14.7805ZM24.3228 15.6591V15.6619C24.3171 15.7702 24.2705 15.8722 24.1923 15.9471C24.1142 16.0219 24.0105 16.0639 23.9025 16.0644C23.7945 16.0649 23.6904 16.024 23.6115 15.9499C23.5326 15.8759 23.485 15.7743 23.4783 15.6661C23.4449 10.3275 19.8984 7.42067 15.6007 7.38994C15.5453 7.38994 15.4905 7.37899 15.4394 7.35772C15.3882 7.33645 15.3417 7.30528 15.3026 7.26597C15.2635 7.22667 15.2324 7.18002 15.2112 7.12867C15.19 7.07732 15.1791 7.02228 15.1791 6.9667C15.1791 6.91112 15.19 6.85608 15.2112 6.80473C15.2324 6.75338 15.2635 6.70673 15.3026 6.66743C15.3417 6.62812 15.3882 6.59695 15.4394 6.57568C15.4905 6.55441 15.5453 6.54346 15.6007 6.54346C20.4132 6.57699 24.281 9.91121 24.32 15.6577L24.3228 15.6591ZM23.5923 22.0817V22.0943C22.8883 23.3389 21.5708 24.7134 20.2143 24.2748L20.2017 24.2552C17.7832 23.3617 15.5162 22.0995 13.4803 20.5131L13.5374 20.555C12.5244 19.7474 11.6054 18.8276 10.7979 17.813L10.7715 17.7781C10.0404 16.8541 9.38786 15.8701 8.82087 14.8364L8.76521 14.7261C8.09439 13.6158 7.53823 12.4396 7.10539 11.2158L7.06365 11.079C6.62678 9.71705 7.98886 8.39426 9.23547 7.68746H9.248C9.49325 7.52985 9.78775 7.4685 10.0752 7.51514C10.3627 7.56178 10.6229 7.71314 10.8063 7.94029L10.8076 7.94308C10.8076 7.94308 11.616 8.91108 11.9624 9.39019C12.288 9.83578 12.7263 10.5496 12.953 10.9477C13.1238 11.2197 13.1933 11.5435 13.1492 11.862C13.1052 12.1805 12.9504 12.4731 12.7123 12.6881L12.711 12.6895L11.929 13.3181C11.8071 13.4362 11.7129 13.5801 11.6532 13.7393C11.5936 13.8985 11.5699 14.0691 11.584 14.2386V14.2344C11.9712 15.5297 12.6699 16.7094 13.6187 17.6695C14.5674 18.6295 15.7369 19.3403 17.024 19.7393L17.0824 19.7546C17.2505 19.7679 17.4193 19.7439 17.5771 19.6843C17.7348 19.6247 17.8776 19.5309 17.9951 19.4096L18.6212 18.6246C18.8363 18.3845 19.1292 18.2287 19.4479 18.185C19.7666 18.1412 20.0904 18.2124 20.3617 18.3857L20.3562 18.383C21.4873 19.0297 22.4654 19.7407 23.3572 20.5466L23.3419 20.5327C23.5681 20.7138 23.7187 20.9733 23.764 21.2602C23.8093 21.5471 23.7461 21.8407 23.5868 22.0831L23.5896 22.079L23.5923 22.0817Z" fill="#FBFCFF"/>
</g>
<defs>
<clipPath id="clip0_64_1506">
<rect width="32" height="33.5238" fill="white" transform="translate(0 0.540039)"/>
</clipPath>
</defs>
</svg>
